<svg id="visual" viewBox="0 0 900 600" width="900" height="600" xmlns="http://www.w3.org/2000/svg" xmlns:xlink="http://www.w3.org/1999/xlink" version="1.1"><g stroke-width="1" stroke-linejoin="bevel"><path d="M502 283L615 192L487 230Z" fill="#0c2435" stroke="#0c2435"></path><path d="M502 283L626 275L615 192Z" fill="#0c2435" stroke="#0c2435"></path><path d="M615 192L573 123L487 230Z" fill="#19435d" stroke="#19435d"></path><path d="M512 89L427 173L487 230Z" fill="#246688" stroke="#246688"></path><path d="M362 331L409 362L502 283Z" fill="#1d4e6b" stroke="#1d4e6b"></path><path d="M409 362L492 374L502 283Z" fill="#15384f" stroke="#15384f"></path><path d="M502 283L582 388L626 275Z" fill="#00101c" stroke="#00101c"></path><path d="M492 374L582 388L502 283Z" fill="#081a28" stroke="#081a28"></path><path d="M573 123L512 89L487 230Z" fill="#19435d" stroke="#19435d"></path><path d="M726 308L730 231L626 275Z" fill="#19435d" stroke="#19435d"></path><path d="M626 275L730 231L615 192Z" fill="#1d4e6b" stroke="#1d4e6b"></path><path d="M615 192L735 71L573 123Z" fill="#081a28" stroke="#081a28"></path><path d="M675 400L726 308L626 275Z" fill="#246688" stroke="#246688"></path><path d="M362 331L502 283L487 230Z" fill="#297ea6" stroke="#297ea6"></path><path d="M639 512L667 464L582 388Z" fill="#246688" stroke="#246688"></path><path d="M582 388L675 400L626 275Z" fill="#19435d" stroke="#19435d"></path><path d="M726 308L775 237L730 231Z" fill="#1d4e6b" stroke="#1d4e6b"></path><path d="M730 231L735 71L615 192Z" fill="#1d4e6b" stroke="#1d4e6b"></path><path d="M765 322L775 237L726 308Z" fill="#00101c" stroke="#00101c"></path><path d="M512 89L393 100L427 173Z" fill="#0c2435" stroke="#0c2435"></path><path d="M427 173L362 331L487 230Z" fill="#00101c" stroke="#00101c"></path><path d="M296 327L362 331L267 173Z" fill="#19435d" stroke="#19435d"></path><path d="M675 400L765 322L726 308Z" fill="#246688" stroke="#246688"></path><path d="M823 124L735 71L730 231Z" fill="#15384f" stroke="#15384f"></path><path d="M624 0L504 0L512 89Z" fill="#1d4e6b" stroke="#1d4e6b"></path><path d="M512 89L504 0L393 100Z" fill="#297ea6" stroke="#297ea6"></path><path d="M624 0L512 89L573 123Z" fill="#277297" stroke="#277297"></path><path d="M670 0L624 0L573 123Z" fill="#277297" stroke="#277297"></path><path d="M639 512L582 388L522 537Z" fill="#112e42" stroke="#112e42"></path><path d="M582 388L667 464L675 400Z" fill="#246688" stroke="#246688"></path><path d="M675 400L821 416L765 322Z" fill="#19435d" stroke="#19435d"></path><path d="M735 71L670 0L573 123Z" fill="#0c2435" stroke="#0c2435"></path><path d="M296 327L319 360L362 331Z" fill="#246688" stroke="#246688"></path><path d="M362 331L319 360L409 362Z" fill="#205a7a" stroke="#205a7a"></path><path d="M522 537L582 388L492 374Z" fill="#205a7a" stroke="#205a7a"></path><path d="M267 173L362 331L427 173Z" fill="#00101c" stroke="#00101c"></path><path d="M362 0L329 80L393 100Z" fill="#00101c" stroke="#00101c"></path><path d="M393 100L267 173L427 173Z" fill="#0c2435" stroke="#0c2435"></path><path d="M522 537L492 374L375 505Z" fill="#081a28" stroke="#081a28"></path><path d="M667 464L821 416L675 400Z" fill="#081a28" stroke="#081a28"></path><path d="M775 237L823 124L730 231Z" fill="#112e42" stroke="#112e42"></path><path d="M735 71L818 0L670 0Z" fill="#246688" stroke="#246688"></path><path d="M900 200L823 124L775 237Z" fill="#297ea6" stroke="#297ea6"></path><path d="M329 80L267 173L393 100Z" fill="#205a7a" stroke="#205a7a"></path><path d="M375 505L492 374L409 362Z" fill="#00101c" stroke="#00101c"></path><path d="M504 0L362 0L393 100Z" fill="#1d4e6b" stroke="#1d4e6b"></path><path d="M329 80L227 131L267 173Z" fill="#297ea6" stroke="#297ea6"></path><path d="M832 497L821 416L667 464Z" fill="#205a7a" stroke="#205a7a"></path><path d="M900 310L900 200L775 237Z" fill="#0c2435" stroke="#0c2435"></path><path d="M336 525L375 505L319 360Z" fill="#081a28" stroke="#081a28"></path><path d="M319 360L375 505L409 362Z" fill="#246688" stroke="#246688"></path><path d="M900 310L775 237L765 322Z" fill="#1d4e6b" stroke="#1d4e6b"></path><path d="M821 416L900 310L765 322Z" fill="#112e42" stroke="#112e42"></path><path d="M280 0L227 131L329 80Z" fill="#081a28" stroke="#081a28"></path><path d="M267 173L192 293L296 327Z" fill="#205a7a" stroke="#205a7a"></path><path d="M900 76L818 0L823 124Z" fill="#277297" stroke="#277297"></path><path d="M823 124L818 0L735 71Z" fill="#112e42" stroke="#112e42"></path><path d="M522 537L570 600L639 512Z" fill="#277297" stroke="#277297"></path><path d="M709 600L832 497L667 464Z" fill="#00101c" stroke="#00101c"></path><path d="M530 600L570 600L522 537Z" fill="#246688" stroke="#246688"></path><path d="M360 600L530 600L522 537Z" fill="#081a28" stroke="#081a28"></path><path d="M218 475L336 525L319 360Z" fill="#0c2435" stroke="#0c2435"></path><path d="M375 505L360 600L522 537Z" fill="#081a28" stroke="#081a28"></path><path d="M173 383L319 360L296 327Z" fill="#00101c" stroke="#00101c"></path><path d="M362 0L280 0L329 80Z" fill="#00101c" stroke="#00101c"></path><path d="M177 228L192 293L267 173Z" fill="#1d4e6b" stroke="#1d4e6b"></path><path d="M709 600L667 464L639 512Z" fill="#081a28" stroke="#081a28"></path><path d="M821 416L900 398L900 310Z" fill="#205a7a" stroke="#205a7a"></path><path d="M900 489L900 398L821 416Z" fill="#246688" stroke="#246688"></path><path d="M900 200L900 76L823 124Z" fill="#081a28" stroke="#081a28"></path><path d="M102 88L177 228L227 131Z" fill="#246688" stroke="#246688"></path><path d="M227 131L177 228L267 173Z" fill="#1d4e6b" stroke="#1d4e6b"></path><path d="M570 600L709 600L639 512Z" fill="#081a28" stroke="#081a28"></path><path d="M96 339L173 383L192 293Z" fill="#297ea6" stroke="#297ea6"></path><path d="M192 293L173 383L296 327Z" fill="#1d4e6b" stroke="#1d4e6b"></path><path d="M302 600L360 600L336 525Z" fill="#205a7a" stroke="#205a7a"></path><path d="M336 525L360 600L375 505Z" fill="#277297" stroke="#277297"></path><path d="M173 383L218 475L319 360Z" fill="#277297" stroke="#277297"></path><path d="M900 76L900 0L818 0Z" fill="#277297" stroke="#277297"></path><path d="M709 600L778 600L832 497Z" fill="#19435d" stroke="#19435d"></path><path d="M832 497L900 489L821 416Z" fill="#15384f" stroke="#15384f"></path><path d="M900 600L900 489L832 497Z" fill="#297ea6" stroke="#297ea6"></path><path d="M218 475L302 600L336 525Z" fill="#205a7a" stroke="#205a7a"></path><path d="M280 0L160 0L227 131Z" fill="#297ea6" stroke="#297ea6"></path><path d="M76 231L96 339L192 293Z" fill="#205a7a" stroke="#205a7a"></path><path d="M173 383L98 405L218 475Z" fill="#277297" stroke="#277297"></path><path d="M218 475L216 600L302 600Z" fill="#277297" stroke="#277297"></path><path d="M76 231L192 293L177 228Z" fill="#205a7a" stroke="#205a7a"></path><path d="M160 0L102 88L227 131Z" fill="#1d4e6b" stroke="#1d4e6b"></path><path d="M102 88L76 231L177 228Z" fill="#15384f" stroke="#15384f"></path><path d="M0 373L98 405L96 339Z" fill="#277297" stroke="#277297"></path><path d="M96 339L98 405L173 383Z" fill="#00101c" stroke="#00101c"></path><path d="M778 600L900 600L832 497Z" fill="#15384f" stroke="#15384f"></path><path d="M99 513L216 600L218 475Z" fill="#205a7a" stroke="#205a7a"></path><path d="M0 120L0 198L76 231Z" fill="#205a7a" stroke="#205a7a"></path><path d="M160 0L109 0L102 88Z" fill="#297ea6" stroke="#297ea6"></path><path d="M0 520L99 513L98 405Z" fill="#205a7a" stroke="#205a7a"></path><path d="M98 405L99 513L218 475Z" fill="#246688" stroke="#246688"></path><path d="M0 120L76 231L102 88Z" fill="#0c2435" stroke="#0c2435"></path><path d="M76 231L0 324L96 339Z" fill="#112e42" stroke="#112e42"></path><path d="M0 198L0 324L76 231Z" fill="#15384f" stroke="#15384f"></path><path d="M0 0L0 120L102 88Z" fill="#0c2435" stroke="#0c2435"></path><path d="M0 324L0 373L96 339Z" fill="#297ea6" stroke="#297ea6"></path><path d="M0 520L92 600L99 513Z" fill="#0c2435" stroke="#0c2435"></path><path d="M99 513L92 600L216 600Z" fill="#081a28" stroke="#081a28"></path><path d="M109 0L0 0L102 88Z" fill="#19435d" stroke="#19435d"></path><path d="M0 373L0 520L98 405Z" fill="#205a7a" stroke="#205a7a"></path><path d="M0 520L0 600L92 600Z" fill="#0c2435" stroke="#0c2435"></path></g></svg>