<?xml version="1.0" encoding="utf-8"?>
<!-- Generator: Adobe Illustrator 26.5.1, SVG Export Plug-In . SVG Version: 6.00 Build 0)  -->
<svg version="1.1" id="Layer_1" xmlns="http://www.w3.org/2000/svg" xmlns:xlink="http://www.w3.org/1999/xlink" x="0px" y="0px"
	 viewBox="0 0 2000 2000" style="enable-background:new 0 0 2000 2000;" xml:space="preserve">
<style type="text/css">
	.st0{fill:#2B3990;}
	.st1{fill:url(#SVGID_1_);}
</style>
<path class="st0" d="M361.69,1685.62h19.73c8.98,0,13.47-5.43,13.47-16.29v-181.34h30.07v186.98c0,25.27-11.59,37.9-34.77,37.9
	h-28.5V1685.62z"/>
<path class="st0" d="M512.97,1712.87H482.9v-186.35c0-25.68,12-38.52,36.02-38.52h22.55c24.01,0,36.02,12.84,36.02,38.52v186.35
	h-30.07v-64.14h-34.45V1712.87z M547.42,1621.48v-93.09c0-8.77-4.38-13.15-13.15-13.15h-8.14c-8.77,0-13.15,4.38-13.15,13.15v93.09
	H547.42z"/>
<path class="st0" d="M663.93,1712.87h-30.07v-186.35c0-25.68,12-38.52,36.02-38.52h22.55c24.01,0,36.02,12.84,36.02,38.52v186.35
	h-30.07v-64.14h-34.45V1712.87z M698.39,1621.48v-93.09c0-8.77-4.38-13.15-13.15-13.15h-8.14c-8.77,0-13.15,4.38-13.15,13.15v93.09
	H698.39z"/>
<path class="st0" d="M857.81,1712.87H786.4v-224.88h30.07v197.63h41.34V1712.87z"/>
<path class="st0" d="M906.35,1712.87v-224.88h30.07v224.88H906.35z"/>
<path class="st0" d="M1026,1712.87h-30.07v-224.88H1026V1712.87z M1095.21,1712.87h-30.07l-37.58-109.93v-1.88l31.32-113.07h27.56
	l-31.63,111.81L1095.21,1712.87z"/>
<path d="M1191.68,1515.24v197.63h-30.07v-197.63h-28.82v-27.25h87.7v27.25H1191.68z"/>
<path d="M1269.04,1712.87v-224.88h74.54v27.25h-44.47v86.51h39.46V1629h-39.46v56.62h44.47v27.25H1269.04z"/>
<path d="M1486.4,1660.25v14.41c0,25.48-12.01,38.21-36.02,38.21h-19.42c-24.01,0-36.02-12.73-36.02-38.21V1526.2
	c0-25.47,12-38.21,36.02-38.21h19.42c24.01,0,36.02,12.74,36.02,38.21v25.37h-30.07v-23.18c0-8.77-4.49-13.15-13.47-13.15h-5.95
	c-7.94,0-11.9,4.38-11.9,13.15v144.07c0,8.77,3.96,13.16,11.9,13.16h7.52c7.93,0,11.9-4.39,11.9-13.16v-12.22H1486.4z"/>
<path d="M1608.24,1712.87V1629h-36.96v83.87h-30.07v-224.88h30.07v113.76h36.96v-113.76h30.07v224.88H1608.24z"/>
<linearGradient id="SVGID_1_" gradientUnits="userSpaceOnUse" x1="556.7808" y1="391.8754" x2="1443.2192" y2="1278.314">
	<stop  offset="0" style="stop-color:#27AAE1"/>
	<stop  offset="1" style="stop-color:#2B3990"/>
</linearGradient>
<path class="st1" d="M1392.09,562.3v241.03h-366.83V287.13L1392.09,562.3z M1443.8,542.39l0.09,260.94l174.04-236.74l-276.93-257.39
	l-111.33,61.36L1443.8,542.39z M1392.09,1107.89V866.87h-366.83v516.19L1392.09,1107.89z M1229.66,1299.64l111.33,61.36
	l276.93-257.39l-174.04-236.74l-0.09,260.94L1229.66,1299.64z M974.73,1383.06V866.87H607.91v241.03L974.73,1383.06z M556.2,1127.8
	l-0.09-260.94l-174.04,236.74L659.01,1361l111.33-61.36L556.2,1127.8z M607.91,562.3v241.03h366.83V287.13L607.91,562.3z
	 M770.34,370.55l-111.33-61.36L382.08,566.58l174.04,236.74l0.09-260.94L770.34,370.55z"/>
</svg>
