<?xml version="1.0" encoding="utf-8"?>
<!-- Generator: Adobe Illustrator 26.5.2, SVG Export Plug-In . SVG Version: 6.00 Build 0)  -->
<svg version="1.1" id="Layer_1" xmlns="http://www.w3.org/2000/svg" xmlns:xlink="http://www.w3.org/1999/xlink" x="0px" y="0px"
	 viewBox="0 0 724.52 228.99" style="enable-background:new 0 0 724.52 228.99;" xml:space="preserve">
<style type="text/css">
	.st0{fill:url(#SVGID_1_);}
	.st1{fill:#2B3990;}
</style>
<linearGradient id="SVGID_1_" gradientUnits="userSpaceOnUse" x1="57.7035" y1="52.6156" x2="190.6256" y2="185.5378">
	<stop  offset="0" style="stop-color:#27AAE1"/>
	<stop  offset="1" style="stop-color:#2B3990"/>
</linearGradient>
<path class="st0" d="M182.96,78.17v36.14h-55.01v-77.4L182.96,78.17z M190.71,75.18l0.01,39.13l26.1-35.5l-41.53-38.6l-16.69,9.2
	L190.71,75.18z M182.96,159.98v-36.14h-55.01v77.4L182.96,159.98z M158.6,188.74l16.69,9.2l41.53-38.6l-26.1-35.5l-0.01,39.13
	L158.6,188.74z M120.38,201.24v-77.4H65.37v36.14L120.38,201.24z M57.62,162.97l-0.01-39.13l-26.1,35.5l41.53,38.6l16.69-9.2
	L57.62,162.97z M65.37,78.17v36.14h55.01v-77.4L65.37,78.17z M89.73,49.42l-16.69-9.2l-41.53,38.6l26.1,35.5l0.01-39.13L89.73,49.42
	z"/>
<path class="st1" d="M236.6,145.66h7.22c3.29,0,4.93-1.99,4.93-5.96V73.36h11v68.4c0,9.24-4.24,13.86-12.72,13.86H236.6
	L236.6,145.66L236.6,145.66z"/>
<path class="st1" d="M291.94,155.63h-11V87.45c0-9.39,4.39-14.09,13.18-14.09h8.25c8.78,0,13.18,4.7,13.18,14.09v68.17h-11v-23.46
	h-12.6V155.63z M304.54,122.19V88.14c0-3.21-1.6-4.81-4.81-4.81h-2.98c-3.21,0-4.81,1.6-4.81,4.81v34.05H304.54z"/>
<path class="st1" d="M347.16,155.63h-11V87.45c0-9.39,4.39-14.09,13.18-14.09h8.25c8.78,0,13.18,4.7,13.18,14.09v68.17h-11v-23.46
	h-12.6V155.63z M359.77,122.19V88.14c0-3.21-1.6-4.81-4.81-4.81h-2.98c-3.21,0-4.81,1.6-4.81,4.81v34.05H359.77z"/>
<path class="st1" d="M418.09,155.63h-26.12V73.36h11v72.3h15.12L418.09,155.63L418.09,155.63z"/>
<path class="st1" d="M435.85,155.63V73.36h11v82.27H435.85z"/>
<path class="st1" d="M479.62,155.63h-11V73.36h11V155.63z M504.94,155.63h-11l-13.75-40.22v-0.69l11.46-41.36h10.08l-11.57,40.9
	L504.94,155.63z"/>
<path d="M540.23,83.33v72.3h-11v-72.3h-10.54v-9.97h32.08v9.97H540.23z"/>
<path d="M568.53,155.63V73.36h27.27v9.97h-16.27v31.65h14.44v9.97h-14.44v20.71h16.27v9.97H568.53z"/>
<path d="M648.04,136.38v5.27c0,9.32-4.39,13.98-13.18,13.98h-7.1c-8.78,0-13.18-4.66-13.18-13.98V87.34
	c0-9.32,4.39-13.98,13.18-13.98h7.1c8.78,0,13.18,4.66,13.18,13.98v9.28h-11v-8.48c0-3.21-1.64-4.81-4.93-4.81h-2.18
	c-2.9,0-4.35,1.6-4.35,4.81v52.7c0,3.21,1.45,4.81,4.35,4.81h2.75c2.9,0,4.35-1.61,4.35-4.81v-4.47L648.04,136.38L648.04,136.38z"/>
<path d="M692.62,155.63v-30.68h-13.52v30.68h-11V73.36h11v41.62h13.52V73.36h11v82.27H692.62z"/>
</svg>
